# xmcd CD database file
#
# Track frame offsets:
#	150
#	16340
#	40695
#	55272
#	71317
#	90054
#	106455
#	130262
#	143560
#	168065
#	183347
#	196157
#	213792
#	230800
#	248300
#
# Disc length: 3544 seconds
#
# Revision: 0
# Processed by: cddbd v1.5PL3 Copyright (c) Steve Scherf et al.
# Submitted via: cdripper 1.0.7
#
DISCID=b20dd60f
DTITLE=Junior Markham - Wound up Tight
DYEAR=1999
DGENRE=Blues
TTITLE0=That's What I Like About Love
TTITLE1=Walk That Way
TTITLE2=House of Blues
TTITLE3=Hoochie Chile
TTITLE4=Message from My Baby
TTITLE5=Wound up Tight
TTITLE6=Ways of a Women
TTITLE7=So Hard to Say Goodbye
TTITLE8=Like to Love You Baby
TTITLE9=Soul Food
TTITLE10=Love Is a Battlefield
TTITLE11=King of the Blues
TTITLE12=Rattlesnake Fever
TTITLE13=Real Bad Neighborhood
TTITLE14=Good Day for the Blues
EXTD=YEAR: 1999
EXTT0=
EXTT1=
EXTT2=
EXTT3=
EXTT4=
EXTT5=
EXTT6=
EXTT7=
EXTT8=
EXTT9=
EXTT10=
EXTT11=
EXTT12=
EXTT13=
EXTT14=
PLAYORDER=
